<svg xmlns="http://www.w3.org/2000/svg" viewBox="0 0 100 100">
  <rect width="100" height="100" rx="22" fill="#ffffff"/>

  <!-- Back document (depth layer) -->
  <rect x="28" y="24" width="54" height="62" rx="4" fill="#e4e4e7"/>

  <!-- Main document body with folded corner -->
  <path d="M26 18 L62 18 L80 36 L80 78 Q80 82 76 82 L26 82 Q22 82 22 78 L22 22 Q22 18 26 18 Z" fill="#09090b"/>

  <!-- Fold (white triangle showing folded corner) -->
  <path d="M62 18 L62 36 L80 36 Z" fill="#fafafa"/>
  <line x1="62" y1="18" x2="80" y2="36" stroke="#09090b" stroke-width="0.6" stroke-linecap="round"/>

  <!-- Content rows -->
  <rect x="30" y="48" width="30" height="1.8" rx="0.9" fill="#ffffff"/>
  <rect x="30" y="55" width="22" height="1.3" rx="0.65" fill="#ffffff" opacity="0.55"/>
  <rect x="30" y="61" width="26" height="1.3" rx="0.65" fill="#ffffff" opacity="0.55"/>

  <!-- Divider -->
  <line x1="30" y1="69" x2="72" y2="69" stroke="#ffffff" stroke-width="0.4" opacity="0.25"/>

  <!-- Total row -->
  <rect x="30" y="72" width="12" height="2.2" rx="1.1" fill="#ffffff"/>
  <rect x="58" y="72" width="14" height="2.2" rx="1.1" fill="#ffffff"/>
</svg>
